REM DIRINDEX 1\2,1\3,1\4,1\5
REM DIRNAME cjc046,folder01,folder02,folder03,folder04
TITLE ""
FILE "136.mp3" MP3
  TRACK 01 AUDIO
    TITLE "0:"
    INDEX 01 00:00:00
  TRACK 02 AUDIO
    TITLE "2:cjc046_3564"
    INDEX 01 00:00:13
  TRACK 03 AUDIO
    TITLE "0:"
    INDEX 01 00:01:30
  TRACK 04 AUDIO
    TITLE "3:cjc046_3565"
    INDEX 01 00:01:48
  TRACK 05 AUDIO
    TITLE "0:"
    INDEX 01 00:03:10
  TRACK 06 AUDIO
    TITLE "4:cjc046_3566"
    INDEX 01 00:03:23
  TRACK 07 AUDIO
    TITLE "0:"
    INDEX 01 00:04:40
  TRACK 08 AUDIO
    TITLE "2:cjc046_3567"
    INDEX 01 00:05:50
  TRACK 09 AUDIO
    TITLE "0:"
    INDEX 01 00:06:63
  TRACK 10 AUDIO
    TITLE "3:cjc046_3568"
    INDEX 01 00:07:11
  TRACK 11 AUDIO
    TITLE "0:"
    INDEX 01 00:09:10
  TRACK 12 AUDIO
    TITLE "4:cjc046_3569"
    INDEX 01 00:09:28
  TRACK 13 AUDIO
    TITLE "0:"
    INDEX 01 00:10:43
  TRACK 14 AUDIO
    TITLE "2:cjc046_3570"
    INDEX 01 00:11:52
  TRACK 15 AUDIO
    TITLE "0:"
    INDEX 01 00:13:06
  TRACK 16 AUDIO
    TITLE "3:cjc046_3571"
    INDEX 01 00:13:16
  TRACK 17 AUDIO
    TITLE "0:"
    INDEX 01 00:14:29
  TRACK 18 AUDIO
    TITLE "4:cjc046_3572"
    INDEX 01 00:14:47
  TRACK 19 AUDIO
    TITLE "0:"
    INDEX 01 00:16:00
  TRACK 20 AUDIO
    TITLE "2:cjc046_3573"
    INDEX 01 00:17:02
  TRACK 21 AUDIO
    TITLE "0:"
    INDEX 01 00:18:07
  TRACK 22 AUDIO
    TITLE "3:cjc046_3574"
    INDEX 01 00:18:23
  TRACK 23 AUDIO
    TITLE "0:"
    INDEX 01 00:19:42
  TRACK 24 AUDIO
    TITLE "4:cjc046_3575"
    INDEX 01 00:19:56
  TRACK 25 AUDIO
    TITLE "0:"
    INDEX 01 00:20:59
  TRACK 26 AUDIO
    TITLE "2:cjc046_3576"
    INDEX 01 00:21:66
  TRACK 27 AUDIO
    TITLE "0:"
    INDEX 01 00:22:62
  TRACK 28 AUDIO
    TITLE "3:cjc046_3577"
    INDEX 01 00:23:10
  TRACK 29 AUDIO
    TITLE "0:"
    INDEX 01 00:24:53
  TRACK 30 AUDIO
    TITLE "4:cjc046_3578"
    INDEX 01 00:24:71
  TRACK 31 AUDIO
    TITLE "0:"
    INDEX 01 00:25:70
  TRACK 32 AUDIO
    TITLE "2:cjc046_3579"
    INDEX 01 00:27:02
  TRACK 33 AUDIO
    TITLE "0:"
    INDEX 01 00:28:08
  TRACK 34 AUDIO
    TITLE "3:cjc046_3580"
    INDEX 01 00:28:27
  TRACK 35 AUDIO
    TITLE "0:"
    INDEX 01 00:30:01
  TRACK 36 AUDIO
    TITLE "4:cjc046_3581"
    INDEX 01 00:30:22
  TRACK 37 AUDIO
    TITLE "0:"
    INDEX 01 00:31:29
  TRACK 38 AUDIO
    TITLE "2:cjc046_3582"
    INDEX 01 00:32:37
  TRACK 39 AUDIO
    TITLE "0:"
    INDEX 01 00:33:48
  TRACK 40 AUDIO
    TITLE "3:cjc046_3583"
    INDEX 01 00:33:62
  TRACK 41 AUDIO
    TITLE "0:"
    INDEX 01 00:35:39
  TRACK 42 AUDIO
    TITLE "4:cjc046_3584"
    INDEX 01 00:35:57
  TRACK 43 AUDIO
    TITLE "0:"
    INDEX 01 00:36:68
  TRACK 44 AUDIO
    TITLE "2:cjc046_3585"
    INDEX 01 00:37:71
  TRACK 45 AUDIO
    TITLE "0:"
    INDEX 01 00:39:09
  TRACK 46 AUDIO
    TITLE "3:cjc046_3586"
    INDEX 01 00:39:31
  TRACK 47 AUDIO
    TITLE "0:"
    INDEX 01 00:41:08
  TRACK 48 AUDIO
    TITLE "4:cjc046_3587"
    INDEX 01 00:41:28
  TRACK 49 AUDIO
    TITLE "0:"
    INDEX 01 00:42:39
  TRACK 50 AUDIO
    TITLE "2:cjc046_3588"
    INDEX 01 00:43:48
  TRACK 51 AUDIO
    TITLE "0:"
    INDEX 01 00:44:54
  TRACK 52 AUDIO
    TITLE "3:cjc046_3589"
    INDEX 01 00:44:73
  TRACK 53 AUDIO
    TITLE "0:"
    INDEX 01 00:46:07
  TRACK 54 AUDIO
    TITLE "4:cjc046_3590"
    INDEX 01 00:46:23
  TRACK 55 AUDIO
    TITLE "0:"
    INDEX 01 00:47:30
  TRACK 56 AUDIO
    TITLE "2:cjc046_3591"
    INDEX 01 00:48:36
  TRACK 57 AUDIO
    TITLE "0:"
    INDEX 01 00:49:35
  TRACK 58 AUDIO
    TITLE "3:cjc046_3592"
    INDEX 01 00:49:53
  TRACK 59 AUDIO
    TITLE "0:"
    INDEX 01 00:50:54
  TRACK 60 AUDIO
    TITLE "4:cjc046_3593"
    INDEX 01 00:50:66
  TRACK 61 AUDIO
    TITLE "0:"
    INDEX 01 00:51:65
  TRACK 62 AUDIO
    TITLE "2:cjc046_3594"
    INDEX 01 00:53:00
  TRACK 63 AUDIO
    TITLE "0:"
    INDEX 01 00:54:13
  TRACK 64 AUDIO
    TITLE "3:cjc046_3595"
    INDEX 01 00:54:29
  TRACK 65 AUDIO
    TITLE "0:"
    INDEX 01 00:55:36
  TRACK 66 AUDIO
    TITLE "4:cjc046_3596"
    INDEX 01 00:55:55
  TRACK 67 AUDIO
    TITLE "0:"
    INDEX 01 00:56:71
  TRACK 68 AUDIO
    TITLE "2:cjc046_3597"
    INDEX 01 00:57:74
  TRACK 69 AUDIO
    TITLE "0:"
    INDEX 01 00:59:14
  TRACK 70 AUDIO
    TITLE "3:cjc046_3598"
    INDEX 01 00:59:34
  TRACK 71 AUDIO
    TITLE "0:"
    INDEX 01 01:00:45
  TRACK 72 AUDIO
    TITLE "4:cjc046_3599"
    INDEX 01 01:00:59
  TRACK 73 AUDIO
    TITLE "0:"
    INDEX 01 01:01:72
  TRACK 74 AUDIO
    TITLE "2:cjc046_3600"
    INDEX 01 01:03:06
  TRACK 75 AUDIO
    TITLE "0:"
    INDEX 01 01:04:27
  TRACK 76 AUDIO
    TITLE "3:cjc046_3601"
    INDEX 01 01:04:45
  TRACK 77 AUDIO
    TITLE "0:"
    INDEX 01 01:05:73
  TRACK 78 AUDIO
    TITLE "4:cjc046_3602"
    INDEX 01 01:06:16
  TRACK 79 AUDIO
    TITLE "0:"
    INDEX 01 01:07:37
  TRACK 80 AUDIO
    TITLE "2:cjc046_3603"
    INDEX 01 01:08:50
  TRACK 81 AUDIO
    TITLE "0:"
    INDEX 01 01:09:59
  TRACK 82 AUDIO
    TITLE "3:cjc046_3604"
    INDEX 01 01:10:04
  TRACK 83 AUDIO
    TITLE "0:"
    INDEX 01 01:11:21
  TRACK 84 AUDIO
    TITLE "4:cjc046_3605"
    INDEX 01 01:11:39
  TRACK 85 AUDIO
    TITLE "0:"
    INDEX 01 01:12:50
